<svg xmlns="http://www.w3.org/2000/svg" viewBox="0 0 413.9 100"><g fill="#1E1E1C"><path d="M255 15a6.6 6.6 0 00-3.9-1.2c-2.2 0-3.5 1.4-3.5 4.5v1.5h9.3v3.6h-9.3v20.1h-4V23.4H237v-3.6h6.7v-1.4c0-5.8 2.8-8.2 7.3-8.2a9 9 0 015 1.4l-1 3.5zM270 40.3c4.9 0 7.7-4 7.7-8.6S274.9 23 270 23c-4.8 0-7.6 4.1-7.6 8.7 0 4.5 2.8 8.6 7.6 8.6m0-20.9c7.3 0 11.7 5.7 11.7 12.3 0 6.5-4.4 12.2-11.7 12.2-7.2 0-11.6-5.7-11.6-12.2 0-6.6 4.4-12.3 11.6-12.3M303 27.3c-.3-2.7-1.7-4.3-4.5-4.3-4.1 0-8 4-8 12v8.5h-4V19.8h4v4.4a10 10 0 018.7-4.8c4.7 0 7.5 2.9 7.8 8h-4zM256.2 84.7c-1.5 3.3-4.8 4.8-8.3 4.8-7.1 0-13.3-5.5-13.3-16.9 0-11.4 6.2-16.8 13.6-16.8 6.5 0 10.4 4.2 11.8 10l-3.9 1.2c-1.5-4.8-3.8-7.3-7.9-7.3-5.6 0-9.3 4-9.3 13s3.7 12.8 9.3 12.8c4.5 0 7-3.2 7.4-9h-7.4v-4h11.7V89h-3.5l-.2-4.4zM268 74.5h14.1c-.7-3.8-3.2-6-7-6-3.9 0-6.3 2.4-7 6m18.2 3.6h-18.6c.3 4.7 3.2 7.8 7.3 7.8 3.6 0 6-1.7 7.7-4.7l3.1 1.6c-2.6 5-6.3 6.7-10.8 6.7-6.9 0-11.3-5.3-11.3-12.3 0-6.6 4.2-12.2 11.3-12.2 7.4 0 11.3 5.2 11.3 11.4v1.7zM307 73c-.4-2.8-1.8-4.4-4.6-4.4-4.1 0-8 3.9-8 12V89h-4V65.4h4v4.4A10 10 0 01303 65c4.7 0 7.5 2.8 7.8 8h-4zM339.1 89.1h-4V72.3c0-2.6-.7-3.7-2.5-3.7-2.3 0-4.2 2.7-4.2 9.3v11.2h-4V72.3c0-2.6-.7-3.7-2.6-3.7-2.2 0-4.2 2.7-4.2 9.3v11.2h-4V65.4h4v3c1.3-2 3.2-3.4 5.6-3.4 2.7 0 4.2 1.5 4.9 3.9 1.2-2.3 3.3-3.9 5.8-3.9 3 0 5.2 1.9 5.2 6.4v17.7zM351.4 86c3.1 0 7.6-2 7.6-7.3v-.8h-5.2c-4 0-6.3 1.7-6.3 4.4 0 2.2 1.6 3.6 4 3.6m11.5 3.2h-3.2l-.6-3.3c-1.5 2.1-4.8 3.7-8.4 3.7-4 0-7.3-2.4-7.3-7.2 0-5.3 4.2-7.8 10.7-7.8h4.8v-1c0-3.7-2.6-5-5.4-5a5.8 5.8 0 00-5.6 4.1l-3.5-1a9 9 0 019-6.6c5.6 0 9.5 2.6 9.5 9.1v15zM388.1 89.1h-4V73.4c0-3.3-1.5-4.8-4.3-4.8-3.8 0-7 4-7 11V89h-4V65.4h4v4.4a9.7 9.7 0 018-4.8c5 0 7.3 3 7.3 7.6V89zM409.6 65.4l-7 17.4-8-17.4h-4.4l10.2 22.1-4.6 11.2h4l14.1-33.3z"/></g><path fill="#FF8282" d="M55.8 9.1v83.1h10.4V9.1z"/><path fill="#FF645F" d="M97 100c.8 0 1.7-.6 1.7-1.4V1.3c0-.7-1-1.3-1.6-1.3H64.5c-.7 0-1 .3-1 .6v8.5c0 .7.3 1.3 1 1.3h22c.8 0 1.7.6 1.7 1.3v76.6c0 .7-1 1.3-1.6 1.3H64.6c-.7 0-1 .3-1 .6v8.4c0 .8.3 1.4 1 1.4h32.5z"/><path fill="#8CDBA6" d="M111.7 9.1v83.1H122.1V9.1z"/><path fill="#21D68F" d="M120.8 100V89.5C135 89.6 145 71.8 145 50c0-21.9-10-39.6-24.2-39.6V0c19.5 0 34.6 22.4 34.6 50 0 27.5-15.1 50-34.6 50"/><path fill="#00ABFA" d="M13 68V87c0 7.8 5 13.1 12.8 13.1H42c.3 0 1-.6 1-1.4V91c0-.8-1-1.3-1.7-1.3H27.6c-3.3 0-4.2-1.6-4.2-5.4V62c0-7.9-3.2-10.8-7-12.2 3.8-1.4 7-4.3 7-12.1V15.3c0-3.8.7-5 4.2-5H42c.3 0 1-.5 1-1.2V1.3c0-.7-1-1.3-1.7-1.3H25.8C18 0 13 5 13 12.7v21l-.5 5.3c-.4 3.5-4.8 6.5-7.4 6.5H1c-.7 0-1 .5-1 1.2v7.8c0 .7.3 1.3 1 1.3h3.7c3.4 0 7.7 2.9 8 7.1L13 68"/><path fill="#BD3B38" d="M64.6 0h-7.7c-.8 0-1 .6-1 1.3V10.4H66.1V0h-1.6zM55.8 90.9V98.6c0 .8.3 1.4 1 1.4h9.4V89.6H55.8V91z"/><path fill="#00B05C" d="M120.4 0h-7.7c-.8 0-1 .6-1 1.3V10.4H122V0h-1.7zM111.7 90.9V98.6c0 .8.2 1.4 1 1.4h9.4V89.6h-10.5V91z"/><path fill="#78CCC7" d="M176.6 68V87c0 7.8 4.9 13.1 12.8 13.1h16c.4 0 1-.6 1-1.4V91c0-.8-1-1.3-1.6-1.3H191.2c-3.4 0-4.2-1.4-4.2-5.3V62c0-2.5-.7-4.8-1.3-6h-17.4c4.8 1.2 6.8 3 7.8 7.1.5 2.1.5 5 .5 5M175.9 39c-1 3.4-3.3 5.2-7.3 6.5H185c1-2.6 2-4.4 2-7.8V15.3c0-3.8.7-5 4.2-5h14.2c.4 0 1-.5 1-1.2V1.3c0-.7-1-1.3-1.6-1.3H189.4c-7.9 0-12.8 5-12.8 12.7v21s-.2 3.6-.7 5.3"/><path fill="#96DBD6" d="M178.4 50.7c2.6 1 5.5 2.5 7.3 5.1h19c.8 0 1.8-.6 1.8-1.3v-7.8c0-.7-1-1.2-1.7-1.2H185a12.4 12.4 0 01-6.6 5.2"/><path fill="#40A6A6" d="M164.5 45.5c-.7 0-.9.5-.9 1.2v7.8c0 .7.2 1.3 1 1.3H185.6c-1.2-2.6-4-4.3-6.2-5.1 2.2-.8 4.2-2.6 5.5-5.2h-20.4z"/></svg>