<svg xmlns="http://www.w3.org/2000/svg" viewBox="0 0 1616 732"><path d="M797 243c-17 0-28-12-28-28 0-15 11-27 28-27s28 12 28 27c0 16-11 28-28 28zm0-45c-9 0-15 7-15 17 0 11 6 18 15 18 10 0 16-7 16-18 0-10-6-17-16-17zM860 224v19h-12v-55h19c15 0 22 8 22 18 0 11-7 18-22 18h-7zm0-9h7c6 0 9-3 9-9 0-5-3-8-9-8h-7v17zM946 188v10h-22v13h17v9h-17v13h22v10h-34v-55h34zM984 190l25 33v-35h11v55h-6c-2 0-4-1-5-3l-25-32v35h-11v-55h6c3 0 3 1 5 2zM785 311h2l4-2 12-18c1-2 3-2 5-2h11l-16 22-4 3 5 4 16 25h-11c-3 0-4-1-5-2l-12-19-4-2h-3v23h-13v-54h13v22zM855 291l26 32v-34h11v54h-7c-2 0-3 0-4-2l-26-32v34h-11v-54h7c2 0 3 0 4 2zM944 344c-17 0-28-12-28-28s11-28 28-28 28 12 28 28-11 28-28 28zm0-45c-10 0-16 6-16 17s6 17 16 17c9 0 15-6 15-17s-6-17-15-17zM986 289h10c2 0 4 1 4 3l8 28 1 6 2-6 9-28c0-2 2-3 4-3h3c3 0 4 1 5 3l8 28 2 6 1-6 8-28c0-2 2-3 4-3h10l-17 54h-12l-10-34-1-3-1 3-10 34h-12l-16-54zM1100 333h20v10h-33v-54h13v44zM1181 289v10h-22v12h17v9h-17v13h22v10h-34v-54h34zM1229 343h-21v-54h21c17 0 28 11 28 27s-11 27-28 27zm0-44h-8v34h8c10 0 15-6 15-17s-5-17-15-17zM1313 332v-8h-5c-2 0-3-1-3-2v-7h20v23c-6 4-12 6-21 6-16 0-28-12-28-28s11-28 29-28c9 0 16 3 20 8l-4 5-2 2-3-1c-4-2-6-3-11-3-10 0-16 7-16 17 0 11 7 18 16 18l8-2zM1385 289v10h-22v12h17v9h-17v13h22v10h-35v-54h35zM807 389v10h-22v14h18v9h-18v22h-13v-55h35zM889 416c0 4 0 8-2 11a26 26 0 01-26 17l-11-2a26 26 0 01-17-26l2-11a26 26 0 0115-14c3-2 7-2 11-2l12 2c4 2 6 3 8 6 3 2 5 5 6 9 2 3 2 7 2 10zm-13 0l-1-7c0-2-1-4-3-5l-4-4-7-1-6 1-5 4c-2 1-3 3-3 5l-1 7 1 8c0 2 1 4 3 5l5 4 6 1 7-1c2 0 3-2 4-4 2-1 3-3 3-5l1-8zM940 434l5-1 3-3 2-3 1-6v-32h12v32l-1 10-5 7-7 4c-3 2-6 2-10 2s-7 0-10-2l-7-4-5-7-1-10v-32h12v32l1 6 2 3 4 3 4 1zM1002 389l1 1h1l1 1 25 33a65 65 0 010-6v-29h11v55h-6l-3-1-2-2-25-32a114 114 0 010 5v30h-11v-55h8zM1122 416l-2 11a25 25 0 01-15 15l-12 2h-21v-55h21l12 2c4 1 6 4 9 6l6 9 2 10zm-13 0l-1-7-3-5-5-4-7-1h-8v35h8l7-1 5-4 3-5 1-8zM1200 444h-9l-3-1-2-2-3-10h-20l-4 10-1 2-3 1h-10l21-55h13l21 55zm-34-21h14l-5-15-1-3-1-4a74 74 0 01-3 7l-4 15zM1266 389v10h-15v45h-12v-45h-16v-10h43zM1308 444h-13v-55h13v55zM1393 416c0 4 0 8-2 11a26 26 0 01-26 17l-11-2a26 26 0 01-17-26l2-11a26 26 0 0115-14c3-2 7-2 11-2l12 2 9 6c2 2 4 5 5 9 2 3 2 7 2 10zm-12 0l-1-7-3-5-5-4-7-1-6 1-5 4-3 5-1 7 1 8 3 5 5 4 6 1 7-1 5-4 3-5 1-8zM1430 389l1 1h1l1 1 25 33a66 66 0 010-6v-29h11v55h-6l-3-1-2-2-25-32a126 126 0 010 5v30h-11v-55h8zM515 202l-17-13L602 50l17 12zM484 180l-19-9 37-75 19 9zM449 164l-20-6 36-127 20 6zM411 155l-21-3 9-83 21 2zM352 154l-7-94 21-1 7 93zM314 162l-16-62 20-6 17 63zM279 177l-19-40 19-8 19 39zM247 198l-10-14 17-12 10 13zM219 224l-50-49 15-15 49 49zM196 255l-77-53 12-17 77 52zM179 289l-48-21 8-19 48 21zM26 292l142 34 5-20-142-35zM164 364l-106-6 1-21 106 6zM65 415l-3-21 103-12 3 21zM154 447l-6-20 23-7 6 20zM116 514l-9-18 77-41 10 19zM141 563l-13-16 75-58 13 17zM182 600l-16-14 62-68 15 14zM253 590l-18-11 22-36 18 11zM280 646l-19-7 30-77 19 7zM333 652l-20-4 14-74 21 4zM385 633h-21l1-53h21zM420 679l-16-100 20-3 17 100zM462 629l-21-58 20-7 21 58zM477 557l76 130 18-11-76-130zM521 549l-11-12 15-15 11 12zM590 553l-53-43 14-16 52 43zM614 509l-53-29 10-19 53 30zM604 454l-26-9 7-20 25 9zM670 420l-81-12 3-21 81 12zM593 370l-1-21 52-1 1 21zM590 331l-4-20 64-14 4 21zM581 295l-8-20 41-17 8 20zM565 260l-12-18 110-70 11 17zM542 228l-14-15 17-16 14 16z"/><g><path d="M362 350c-1-2-3-3-6-4l-8-2h-11v45h11l8-1c3-1 5-3 6-5l4-7 2-9-2-10-4-7z"/><path d="M511 371l-1-16-46 2 45-10-3-15-46 9 44-17-6-14-43 17 39-25-8-13-40 25 34-32-10-11-34 32 28-37-13-10-28 38 21-42-14-7-20 42 13-45-15-4-13 45 5-47-16-2-5 49-3-49-16 2 4 46-12-45-15 4 12 45-20-42-14 6 20 43-27-39-13 9 27 38-33-32-11 11 34 32-39-26-9 13 39 26-43-19-6 14 43 19-46-11-3 15 45 11-46-2-1 15 46 3-46 5 2 16 46-6-44 14 4 15 45-14-42 21 7 14 42-22-37 29 9 12 37-29-31 35 12 11 31-35-25 40 13 8 25-40-17 43 14 6 17-44-9 46 15 3 9-46v47h15l1-46 7 46 16-3-8-46 16 44 14-5-16-44 24 40 13-7-23-41 30 36 12-10-30-36 36 30 9-12-36-30 41 23 8-14-41-22 44 15 5-15-44-15 46 7 2-15-46-7 47-1zm-129 10a33 33 0 01-19 18l-15 3h-27v-70h27l15 2 11 8 8 11 2 14-2 14zm55-37h-29v17h22v12h-22v16h29v13h-45v-70h45v12z"/></g><g><path d="M817 505l-2 11a24 24 0 01-14 14l-10 2h-20v-53h20c4 0 7 0 10 2a24 24 0 0114 13l2 11zm-8 0l-1-9-4-6c-1-2-3-3-6-4l-7-2h-13v42h13l7-2c3-1 5-2 6-4 2-1 3-4 4-6l1-9zM881 479v5h-25v18h20v6h-20v18h25v6h-33v-53h33zM934 526l6-1a12 12 0 007-8l1-6v-32h7v32l-1 8-5 7-6 5-9 1-9-1c-3-1-5-3-6-5l-5-7-1-8v-32h7v32l1 6 3 5 4 3 6 1zM1025 479v6h-17v47h-7v-47h-17v-6h41zM1082 487l-1 1h-1l-1-1a23 23 0 00-5-2l-5-1-4 1-3 1-2 3v3l1 4 2 2 5 2 4 2 5 2 4 2 3 4 1 6-1 6-4 5-5 4-8 1a23 23 0 01-16-7l2-3v-1h1l2 1 3 2 3 1 5 1h5l3-2 2-3 1-4-1-4-3-3-4-2-4-1-5-2-4-3-3-3-1-6a14 14 0 014-10l5-4 7-1 8 1 7 5-2 3zM1153 521h1l3 3c-2 3-5 5-8 6-3 2-6 2-11 2-4 0-7 0-10-2l-8-5-5-9a32 32 0 010-22l5-8a27 27 0 0120-8l10 2 7 5-2 3-1 1h-1-1a45 45 0 01-3-2l-2-2h-3l-5-1-7 2a17 17 0 00-10 10l-2 9 2 9 4 7 5 4 8 1h4l3-1 3-2 3-2h1zM1232 532h-8v-24h-28v24h-7v-53h7v23h28v-23h8v53zM1274 526h23v6h-31v-53h8v47zM1370 532h-6l-1-1-1-1-5-13h-24l-5 13-1 1-1 1h-6l21-53h8l21 53zm-35-20h20l-8-22-2-5a84 84 0 01-1 5l-9 22zM1404 479l1 1 30 40a24 24 0 010-4v-37h7v53h-4l-1-1-2-1-30-40a49 49 0 010 4v38h-6v-53h5zM1522 505c0 4 0 8-2 11l-5 8-8 6-11 2h-20v-53h20c4 0 8 0 11 2a24 24 0 0113 13c2 4 2 7 2 11zm-7 0l-1-9-4-6-6-4-8-2h-12v42h12l8-2 6-4c2-1 3-4 4-6l1-9z"/></g></svg>